<?xml version="1.0" encoding="UTF-8"?>
<svg width="31px" height="32px" viewBox="0 0 31 32" version="1.1" xmlns="http://www.w3.org/2000/svg" xmlns:xlink="http://www.w3.org/1999/xlink">
    <!-- Generator: Sketch 49.1 (51147) - http://www.bohemiancoding.com/sketch -->
    <title></title>
    <desc>Created with Sketch.</desc>
    <defs></defs>
    <g id="Mobile" stroke="none" stroke-width="1" fill="none" fill-rule="evenodd">
        <g id="Mobile-Room-Moderators" transform="translate(-266.000000, -105.000000)" fill="#FFFFFF">
            <path d="M292.357143,121.082589 C292.357143,118.926329 291.774559,116.950902 290.609375,115.15625 L275.462054,130.283482 C277.296884,131.475452 279.285704,132.071429 281.428571,132.071429 C282.915186,132.071429 284.331466,131.780137 285.677455,131.197545 C287.023444,130.614952 288.185263,129.834826 289.162946,128.857143 C290.14063,127.879459 290.917408,126.710944 291.493304,125.351562 C292.069199,123.992181 292.357143,122.569204 292.357143,121.082589 Z M272.287946,127.089286 L287.455357,111.941964 C285.647312,110.723208 283.638404,110.113839 281.428571,110.113839 C279.446419,110.113839 277.618312,110.602674 275.944196,111.580357 C274.270081,112.558041 272.944201,113.890617 271.966518,115.578125 C270.988834,117.265633 270.5,119.100437 270.5,121.082589 C270.5,123.252243 271.095976,125.254455 272.287946,127.089286 Z M295.631696,115.075893 C296.448665,116.977688 296.857143,118.9799 296.857143,121.082589 C296.857143,123.185278 296.448665,125.194187 295.631696,127.109375 C294.814728,129.024563 293.719873,130.671868 292.347098,132.051339 C290.974323,133.43081 289.333715,134.529014 287.425223,135.345982 C285.516732,136.162951 283.517868,136.571429 281.428571,136.571429 C279.339275,136.571429 277.340411,136.162951 275.43192,135.345982 C273.523428,134.529014 271.882819,133.43081 270.510045,132.051339 C269.13727,130.671868 268.042415,129.024563 267.225446,127.109375 C266.408478,125.194187 266,123.185278 266,121.082589 C266,118.9799 266.408478,116.97434 267.225446,115.065848 C268.042415,113.157357 269.13727,111.5134 270.510045,110.133929 C271.882819,108.754457 273.523428,107.656254 275.43192,106.839286 C277.340411,106.022317 279.339275,105.613839 281.428571,105.613839 C283.517868,105.613839 285.516732,106.022317 287.425223,106.839286 C289.333715,107.656254 290.974323,108.754457 292.347098,110.133929 C293.719873,111.5134 294.814728,113.160705 295.631696,115.075893 Z" id=""></path>
        </g>
    </g>
</svg>