<svg width="21px" height="24px" viewBox="0 0 21 24" version="1.1" xmlns="http://www.w3.org/2000/svg" xmlns:xlink="http://www.w3.org/1999/xlink">
    <g id="Mobile" stroke="none" stroke-width="1" fill="none" fill-rule="evenodd">
        <g id="Mobile-Chat---Ban-User" transform="translate(-102.000000, -220.000000)" fill="#FFFFFF">
            <g id="Ban-user" transform="translate(33.000000, 65.000000)">
                <g id="Ban-Date" transform="translate(69.000000, 155.000000)">
                    <path d="M18.75,3.00004292 C19.3749998,3.00004292 19.9062502,3.21879263 20.34375,3.65629135 C20.7812498,4.09379007 21,4.62503928 21,5.25003755 L21,21.7499982 C21,22.3749965 20.7812498,22.9062457 20.34375,23.3437444 C19.9062502,23.7812431 19.3749998,23.9999928 18.75,23.9999928 L2.25,23.9999928 C1.62500024,23.9999928 1.09374976,23.7812431 0.65625,23.3437444 C0.218750238,22.9062457 0,22.3749965 0,21.7499982 L0,5.25003755 C0,4.62503928 0.218750238,4.09379007 0.65625,3.65629135 C1.09374976,3.21879263 1.62500024,3.00004292 2.25,3.00004292 L4.5,3.00004292 L4.5,0.562548727 C4.5,0.406299338 4.55468774,0.273486678 4.6640625,0.164112177 C4.77343726,0.0547376759 4.90625024,5.00679016e-05 5.0625,5.00679016e-05 L6.9375,5.00679016e-05 C7.09374976,5.00679016e-05 7.22656274,0.0547376759 7.3359375,0.164112177 C7.44531226,0.273486678 7.5,0.406299338 7.5,0.562548727 L7.5,3.00004292 L13.5,3.00004292 L13.5,0.562548727 C13.5,0.406299338 13.5546877,0.273486678 13.6640625,0.164112177 C13.7734373,0.0547376759 13.9062502,5.00679016e-05 14.0625,5.00679016e-05 L15.9375,5.00679016e-05 C16.0937498,5.00679016e-05 16.2265627,0.0547376759 16.3359375,0.164112177 C16.4453123,0.273486678 16.5,0.406299338 16.5,0.562548727 L16.5,3.00004292 L18.75,3.00004292 Z M18.468706,21.7499982 C18.5312056,21.7499982 18.5937059,21.718748 18.6562055,21.6562484 C18.7187051,21.5937488 18.7499553,21.5312485 18.7499553,21.4687489 L18.7499553,7.50003219 L2.24999464,7.50003219 L2.24999464,21.4687489 C2.24999464,21.5312485 2.2812448,21.5937488 2.34374441,21.6562484 C2.40624402,21.718748 2.46874435,21.7499982 2.53124397,21.7499982 L18.468706,21.7499982 Z" id="Calendar"></path>
                </g>
            </g>
        </g>
    </g>
</svg>