<?xml version="1.0" encoding="UTF-8"?>
<!DOCTYPE svg PUBLIC "-//W3C//DTD SVG 1.1//EN" "http://www.w3.org/Graphics/SVG/1.1/DTD/svg11.dtd">
<svg version="1.1" xmlns="http://www.w3.org/2000/svg" xmlns:xlink="http://www.w3.org/1999/xlink" x="0" y="0" width="1" height="1" viewBox="0, 0, 100, 100">
  <g id="Layer_1">
    <g>
      <path d="M6.281,25.553 L68.83,25.553 C69.485,25.553 70.016,26.107 70.016,26.79 L70.016,67.323 L95.905,94.447 L70.016,83.721 L70.016,92.9 C70.016,93.584 69.485,94.138 68.83,94.138 L6.281,94.138 C5.626,94.138 5.095,93.584 5.095,92.9 L5.095,26.79 C5.095,26.107 5.626,25.553 6.281,25.553 z" fill="#FFFFFF"/>
      <path d="M6.281,25.553 L68.83,25.553 C69.485,25.553 70.016,26.107 70.016,26.79 L70.016,67.323 L95.905,94.447 L70.016,83.721 L70.016,92.9 C70.016,93.584 69.485,94.138 68.83,94.138 L6.281,94.138 C5.626,94.138 5.095,93.584 5.095,92.9 L5.095,26.79 C5.095,26.107 5.626,25.553 6.281,25.553 z" fill-opacity="0" stroke="#000000" stroke-width="9.446" stroke-linejoin="round" stroke-miterlimit="8"/>
    </g>
  </g>
</svg>
