<svg width="22px" height="21px" viewBox="0 0 22 21" version="1.1" xmlns="http://www.w3.org/2000/svg" xmlns:xlink="http://www.w3.org/1999/xlink">
    <g id="Symbols" stroke="none" stroke-width="1" fill="none" fill-rule="evenodd">
        <g id="Cog" transform="translate(0.000000, -2.000000)" fill="#FFFFFF">
        <path d="M13.4241071,14.8526786 C14.0937533,14.1830324 14.4285714,13.3750047 14.4285714,12.4285714 C14.4285714,11.4821381 14.0937533,10.6741105 13.4241071,10.0044643 C12.7544609,9.33481808 11.9464333,9 11,9 C10.0535667,9 9.24553906,9.33481808 8.57589286,10.0044643 C7.90624665,10.6741105 7.57142857,11.4821381 7.57142857,12.4285714 C7.57142857,13.3750047 7.90624665,14.1830324 8.57589286,14.8526786 C9.24553906,15.5223248 10.0535667,15.8571429 11,15.8571429 C11.9464333,15.8571429 12.7544609,15.5223248 13.4241071,14.8526786 Z M21.2857143,10.96875 L21.2857143,13.9419643 C21.2857143,14.0491077 21.2500004,14.1517852 21.1785714,14.25 C21.1071425,14.3482148 21.0178577,14.4062499 20.9107143,14.4241071 L18.4330357,14.7991071 C18.263392,15.2812524 18.0892866,15.6874983 17.9107143,16.0178571 C18.2232158,16.4642879 18.7008896,17.0803532 19.34375,17.8660714 C19.4330362,17.9732148 19.4776786,18.0848208 19.4776786,18.2008929 C19.4776786,18.3169649 19.4375004,18.4196424 19.3571429,18.5089286 C19.1160702,18.8392874 18.6741104,19.3214254 18.03125,19.9553571 C17.3883896,20.5892889 16.968751,20.90625 16.7723214,20.90625 C16.665178,20.90625 16.5491078,20.8660718 16.4241071,20.7857143 L14.5758929,19.3392857 C14.1830337,19.5446439 13.7767878,19.714285 13.3571429,19.8482143 C13.214285,21.0625061 13.084822,21.8928549 12.96875,22.3392857 C12.9062497,22.589287 12.745537,22.7142857 12.4866071,22.7142857 L9.51339286,22.7142857 C9.38839223,22.7142857 9.27901833,22.6763397 9.18526786,22.6004464 C9.09151739,22.5245532 9.04017862,22.428572 9.03125,22.3125 L8.65625,19.8482143 C8.21874781,19.7053564 7.81696612,19.5401795 7.45089286,19.3526786 L5.5625,20.7857143 C5.47321384,20.8660718 5.36160781,20.90625 5.22767857,20.90625 C5.10267795,20.90625 4.99107192,20.8571433 4.89285714,20.7589286 C3.76785152,19.7410663 3.03125174,18.9910738 2.68303571,18.5089286 C2.6205354,18.4196424 2.58928571,18.3169649 2.58928571,18.2008929 C2.58928571,18.0937495 2.62499964,17.9910719 2.69642857,17.8928571 C2.83035781,17.7053562 3.05803411,17.4084842 3.37946429,17.0022321 C3.70089446,16.5959801 3.94196348,16.2812511 4.10267857,16.0580357 C3.86160594,15.6116049 3.67857205,15.169645 3.55357143,14.7321429 L1.10267857,14.3705357 C0.986606563,14.3526785 0.8928575,14.2968755 0.821428571,14.203125 C0.749999643,14.1093745 0.714285714,14.0044649 0.714285714,13.8883929 L0.714285714,10.9151786 C0.714285714,10.8080352 0.749999643,10.7053576 0.821428571,10.6071429 C0.8928575,10.5089281 0.97767808,10.4508929 1.07589286,10.4330357 L3.56696429,10.0580357 C3.69196491,9.64731938 3.86607031,9.2366092 4.08928571,8.82589286 C3.73214107,8.31696174 3.25446728,7.70089647 2.65625,6.97767857 C2.56696384,6.87053518 2.52232143,6.76339339 2.52232143,6.65625 C2.52232143,6.56696384 2.5624996,6.46428629 2.64285714,6.34821429 C2.87500116,6.02678411 3.31472891,5.54687819 3.96205357,4.90848214 C4.60937824,4.27008609 5.03124902,3.95089286 5.22767857,3.95089286 C5.34375058,3.95089286 5.45982085,3.99553527 5.57589286,4.08482143 L7.42410714,5.51785714 C7.81696625,5.31249897 8.22321219,5.14285781 8.64285714,5.00892857 C8.785715,3.79463679 8.91517799,2.96428795 9.03125,2.51785714 C9.09375031,2.26785589 9.25446299,2.14285714 9.51339286,2.14285714 L12.4866071,2.14285714 C12.6116078,2.14285714 12.7209817,2.18080319 12.8147321,2.25669643 C12.9084826,2.33258967 12.9598214,2.42857085 12.96875,2.54464286 L13.34375,5.00892857 C13.7812522,5.15178643 14.1830339,5.31696335 14.5491071,5.50446429 L16.4508929,4.07142857 C16.5312504,3.99107103 16.6383922,3.95089286 16.7723214,3.95089286 C16.8883934,3.95089286 16.9999995,3.99553527 17.1071429,4.08482143 C18.2589343,5.14732674 18.9955341,5.90624772 19.3169643,6.36160714 C19.3794646,6.43303607 19.4107143,6.53124938 19.4107143,6.65625 C19.4107143,6.76339339 19.3750004,6.86607094 19.3035714,6.96428571 C19.1696422,7.15178665 18.9419659,7.44865868 18.6205357,7.85491071 C18.2991055,8.26116275 18.0580365,8.57589174 17.8973214,8.79910714 C18.1294654,9.24553795 18.3124993,9.68303357 18.4464286,10.1116071 L20.8973214,10.4866071 C21.0133934,10.5044644 21.1071425,10.5602674 21.1785714,10.6540179 C21.2500004,10.7477683 21.2857143,10.852678 21.2857143,10.96875 Z"></path>
        </g>
    </g>
</svg>