<?xml version="1.0" encoding="UTF-8"?>
<svg width="29px" height="32px" viewBox="0 0 29 32" version="1.1" xmlns="http://www.w3.org/2000/svg" xmlns:xlink="http://www.w3.org/1999/xlink">
    <!-- Generator: Sketch 49 (51002) - http://www.bohemiancoding.com/sketch -->
    <title>Trashcan</title>
    <desc>Created with Sketch.</desc>
    <defs></defs>
    <g id="Trashcan" stroke="none" stroke-width="1" fill="none" fill-rule="evenodd">
        <path d="M3.62890244,8 L25.3710976,8 C26.4756671,8 27.3710976,8.8954305 27.3710976,10 C27.3710976,10.0416159 27.3697986,10.0832217 27.3672027,10.1247566 L26.1172027,30.1247566 C26.0513233,31.1788264 25.1772241,32 24.1210976,32 L4.87890244,32 C3.82277588,32 2.94867665,31.1788264 2.88279729,30.1247566 L1.63279729,10.1247566 C1.56389613,9.02233814 2.40172743,8.072796 3.50414587,8.00389484 C3.54568074,8.00129891 3.58728652,8 3.62890244,8 Z" id="Rectangle-7" fill="#FFFFFF"></path>
        <path d="M10,2 L10,1.5 C10,0.671572875 10.6715729,1.52179594e-16 11.5,0 L17.5,0 C18.3284271,-1.52179594e-16 19,0.671572875 19,1.5 L19,2 L27.5,2 C28.3284271,2 29,2.67157288 29,3.5 L29,5.5 C29,6.32842712 28.3284271,7 27.5,7 L1.5,7 C0.671572875,7 1.01453063e-16,6.32842712 0,5.5 L0,3.5 C-1.01453063e-16,2.67157288 0.671572875,2 1.5,2 L10,2 Z" id="Combined-Shape" fill="#FFFFFF"></path>
    </g>
</svg>