<?xml version="1.0" encoding="UTF-8"?>
<svg width="206px" height="206px" viewBox="0 0 206 206" version="1.1" xmlns="http://www.w3.org/2000/svg" xmlns:xlink="http://www.w3.org/1999/xlink">
    <!-- Generator: Sketch 48.2 (47327) - http://www.bohemiancoding.com/sketch -->
    <title>Emoji Icon</title>
    <desc>Created with Sketch.</desc>
    <defs></defs>
    <g id="Emoji-Icon" stroke="none" stroke-width="1" fill="none" fill-rule="evenodd">
        <g id="Group" transform="translate(10.000000, 10.000000)">
            <circle id="Oval-2" stroke="#FFFFFF" stroke-width="9" cx="92.5" cy="92.5" r="92.5"></circle>
            <circle id="Oval-3" fill="#FFFFFF" cx="63.7621359" cy="78.131068" r="14.368932"></circle>
            <path d="M91.6320844,113.15534 C110.974436,113.15534 127.823863,124.224517 140.393491,144.234836 C140.577579,144.527898 140.842929,144.992799 141.18954,145.62954 L141.18954,145.62954 C142.140121,147.375803 141.495093,149.562027 139.74883,150.512608 C138.877798,150.986756 137.849747,151.08058 136.907274,150.771941 C121.416013,145.698886 106.324283,143.162359 91.6320844,143.162359 C77.5229094,143.162359 63.458084,145.501569 49.4376083,150.179989 L49.4376168,150.180015 C47.275751,150.901397 44.938417,149.733654 44.2170352,147.571788 C43.8473843,146.464003 43.9644265,145.251465 44.5391398,144.234836 C44.5391398,144.234836 44.5391398,144.234836 44.5391398,144.234836 C56.2522372,123.515172 71.9498854,113.15534 91.6320844,113.15534 Z" id="Triangle" fill="#FFFFFF" transform="translate(92.820797, 132.055884) scale(1, -1) translate(-92.820797, -132.055884) "></path>
            <circle id="Oval-3" fill="#FFFFFF" cx="121.237864" cy="78.131068" r="14.368932"></circle>
        </g>
    </g>
</svg>