<?xml version="1.0" encoding="UTF-8"?>
<svg width="100px" height="81px" viewBox="0 0 100 81" version="1.1" xmlns="http://www.w3.org/2000/svg" xmlns:xlink="http://www.w3.org/1999/xlink">
    <!-- Generator: Sketch 49 (51002) - http://www.bohemiancoding.com/sketch -->
    <title>ewclogo - White</title>
    <desc>Created with Sketch.</desc>
    <defs></defs>
    <g id="Mobile" stroke="none" stroke-width="1" fill="none" fill-rule="evenodd">
        <g id="Mobile-Intro" transform="translate(-45.000000, -71.000000)">
            <g id="ewclogo---White" transform="translate(45.000000, 71.000000)">
                <g id="ewclogo">
                    <polygon id="Main-Land-Colour" fill="#FFFFFF" points="11.8992024 5.57401317 47.8063611 2.99625468 53.7453184 2.99625468 53.7453184 9.22583769 50 11.2665632 44.0074906 11.2665632 40.8532407 11.2665632 39.1927941 15.5628273 36.5983462 22.659176 32.8623413 18.9998386 30.9943388 16.2072669 26.4281105 17.6029963 23.0034393 17.6029963 21.5505485 18.9998386 21.9656602 23.6183226 28.0885572 25.3368282 30.5792271 26.6257075 31.8764511 31.2441914 35.3530112 32.8552905 47.8063611 34.0367631 56.6274839 41.2330055 65.5523846 46.7107423 68.7694999 50.040347 69.2883895 52.9403253 67.9775281 60.0291612 64.2322097 63.5735791 60.6741573 66.4794007 56.6274839 69.8501873 51.8536997 73.4549866 49.051696 75.2808989 36.5983462 75.2808989 39.9192395 63.5735791 39.1927941 60.0291612 35.3530112 52.9403253 32.8623413 48.3218414 33.4850087 45.2070499 33.4850087 43.9181706 35.7681229 39.6219065 35.3530112 37.6885876 26.4281105 31.9960376 23.0034393 30.5243446 15.3238736 26.6257075 11.8992024 20.8257509 10.8614232 15.5628273"></polygon>
                    <path d="M11.7111681,4.3071161 L13.5806484,3.55805243 C11.7804081,12.6716604 11.7804081,19.172463 13.5806484,23.0604601 C16.2810089,28.8924559 20.4354097,27.4478331 23.4473502,28.8389513 C26.4592908,30.2300696 26.1204169,31.2110386 28.4326311,33.012306 C29.9741073,34.213151 31.1511875,35.0335541 31.9638718,35.4735152 C34.7334723,36.686285 36.3952326,37.8277154 36.9491527,38.8978063 C37.7800328,40.5029428 37.006277,40.9190863 36.5337126,42.0010701 C36.0611483,43.0830538 35.1587793,43.263997 34.1449322,45.3183521 C33.4690341,46.6879221 33.2266941,47.6866737 33.417912,48.3146067 C33.884853,49.9089433 34.4387731,51.2643918 35.0796723,52.3809524 C36.0410212,54.0557932 38.610913,57.6243981 39.1302131,58.2664526 C39.6495132,58.9085072 40.8213391,61.3697164 41.1035534,62.3327983 C41.2916963,62.9748529 40.8070163,64.8296772 39.6495132,67.8972713 L37.7800328,74.7458534 L35.7028325,75.6554307 C37.0876327,72.4483294 37.7800328,69.5055793 37.7800328,66.8271803 C37.7800328,62.8095819 36.8539959,63.2073049 35.0796723,57.3033708 C33.3053488,51.3994367 30.7175515,48.6891386 31.4445717,45.7463884 C32.1715918,42.8036383 34.1449322,42.3220974 34.1449322,40.5029428 C34.1449322,38.6837881 33.417912,37.4531835 30.7175515,36.9716426 C28.0171911,36.4901017 28.6516854,36.5168539 27.913331,36.1155698 C27.1749767,35.7142857 26.8932899,35.1227157 25.8361307,34.4034243 C24.7789714,33.6841329 24.1482269,33.0735271 22.40875,32.3702515 C20.6692731,31.6669758 21.6817299,32.2097378 17.6311892,31.0861423 C13.5806484,29.9625468 11.6395323,25.8407057 10.8802879,23.7025147 C10.1210435,21.5643237 10.0387177,21.1703606 9.73782772,18.3520599 C9.43693775,15.5337593 9.4605884,15.5204775 9.73782772,13.0016051 C9.92265393,11.3223569 10.303474,9.64588104 10.8802879,7.97217764 L11.7111681,4.3071161 Z M51.8726592,4.86891386 L54.3976359,5.61797753 C54.8354993,7.22376456 54.8354993,8.50787371 54.3976359,9.47030498 C53.7408407,10.9139519 53.0498911,11.9060477 51.2818353,12.4665597 C49.5137795,13.0270716 46.4470554,12.011771 44.9463741,12.4665597 C43.94592,12.7697521 42.6649797,13.6614946 41.1035534,15.1417871 C40.3145987,15.8369792 39.7606786,16.693052 39.4417931,17.7100054 C38.963465,19.2354354 39.3258427,20.9737828 38.922493,22.0973783 C38.5191434,23.2209738 37.6937469,24.1277654 36.3259926,24.3445693 C35.4141563,24.4891052 34.4794162,24.0253991 33.5217721,22.953451 C32.9094371,21.75285 32.182417,20.8254378 31.3407117,20.1712146 C30.0781536,19.1898797 29.5127212,18.7519951 27.601751,18.3520599 C25.6907807,17.9521248 23.3075077,19.0922752 22.8241901,20.1712146 C22.3408725,21.2501539 21.4265356,23.0337079 23.4473502,24.3445693 C25.4681648,25.6554307 29.9098877,24.9866239 31.3407117,26.1637239 C32.7715356,27.340824 33.002472,32.3970037 36.9491527,33.012306 C39.5802732,33.4225076 42.0729136,33.4225076 44.427074,33.012306 C46.1144122,32.857076 47.6376924,33.213773 48.9969149,34.082397 C51.0357485,35.385333 52.2677764,38.1219904 52.6320155,38.2557517 C52.9962547,38.3895131 56.1231041,41.1449973 56.9941363,41.3590155 C57.8651685,41.5730337 60.2385447,43.4540529 61.3562571,44.2482611 C62.4739696,45.0424693 63.4374653,45.0848185 65.4067979,46.2814339 C67.3761305,47.4780493 67.0045649,47.2177635 69.4573386,49.1706795 C71.0925211,50.4726235 71.5079612,53.2905297 70.7036588,57.6243981 C70.5341626,59.1905026 70.1187225,60.4746118 69.4573386,61.4767255 C68.4652627,62.9798961 66.3972989,64.2322097 63.5373175,65.7303371 C60.6773361,67.2284644 58.2685625,69.1335388 54.3976359,72.4986624 C51.8170181,74.7420781 51.228478,75.6694903 52.6320155,75.2808989 L49.516215,74.8528625 C52.8899523,71.1897441 55.3825927,68.6215258 56.9941363,67.1482076 C59.4114518,64.9382302 66.2209506,62.2257892 67.3801382,59.0155163 C68.5393258,55.8052434 70.0374532,51.3108614 67.3801382,50.2407705 C64.7228233,49.1706795 65.4022308,49.7146749 63.5373175,48.7426431 C62.294042,48.0946219 60.6322817,47.0602007 58.5520366,45.6393793 C57.4803005,44.4881621 56.3724603,43.4180711 55.228516,42.4291065 C53.5125996,40.9456595 51.7343799,39.5131086 51.2818353,38.9513109 C50.8292907,38.3895131 49.516215,36.5168539 48.3737548,35.5805243 C47.2312946,34.6441948 37.6404494,35.5805243 36.3259926,35.5805243 C35.0115357,35.5805243 34.4216877,35.3313996 33.002472,34.082397 C31.5832562,32.8333944 32.1995474,32.6041699 31.3407117,31.1931514 C30.4818759,29.7821329 29.6676171,28.1968967 29.1596513,27.7688604 C28.6516854,27.340824 24.1573034,27.1535581 22.30489,26.1637239 C20.4524766,25.1738898 20.4425515,21.2081928 20.8508497,19.3151418 C21.259148,17.4220908 21.633993,17.5296108 22.8241901,17.0679508 C24.0143872,16.6062908 26.3100555,15.6886541 29.6789514,15.8908507 C31.924882,16.0256485 33.2058222,16.6320334 33.5217721,17.7100054 C33.7623346,18.6828665 34.1085347,19.5032695 34.5603722,20.1712146 C35.2381286,21.1731321 35.2580846,21.2413055 35.9105525,21.2413055 C36.5630204,21.2413055 36.7314311,20.9703652 36.9491527,20.1712146 C37.0943004,19.6384475 37.3020204,17.9619716 37.5723128,15.1417871 C38.009193,13.6923532 38.6323531,12.5865926 39.4417931,11.8245051 C40.6559531,10.6813738 41.4427409,9.83149627 43.5961939,9.47030498 C45.7496469,9.10911368 46.0272591,10.489732 48.3737548,10.3263777 C50.7202505,10.1630235 50.3889068,10.3280169 51.2818353,8.9352595 C51.877121,8.00675455 52.0740623,6.651306 51.8726592,4.86891386 Z" id="Main-Land-Outline" fill="#FFFFFF"></path>
                    <polygon id="Other-Land-Green" fill="#FFFFFF" points="59.5505618 5.66974209 60.3802939 9.50640967 66.3958513 9.93270607 68.6776145 11.5313176 69.5073466 14.19567 70.4407952 17.7126153 72.6188418 18.3520599 73.0337079 8.97353917 71.2705272 5.24344569"></polygon>
                    <path d="M57.3033708,3.6934083 C57.6019109,6.13736527 58.0874152,7.85801478 58.7598835,8.85535684 C59.768586,10.3513699 60.0333227,10.3890662 62.0890553,10.7910875 C64.144788,11.1931089 65.218123,10.0920663 66.4585934,10.3609252 C67.6990639,10.629784 67.9124974,11.0282226 68.5393258,12.1891153 C69.1661542,13.350008 68.7976645,17.4439049 69.1635456,18.6415509 C69.5294266,19.839197 69.6135395,19.8880995 70.9321681,20.3622005 C71.8112539,20.6782678 72.8169412,20.6782678 73.9492301,20.3622005 L74.1573034,15.9530361 C72.7007907,16.7416671 71.6951033,17.028442 71.1402414,16.8133608 C70.3079484,16.490739 70.8190449,14.8926556 70.411985,13.1569806 C70.0049252,11.4213056 69.6837287,10.1123596 69.4756554,9.71568159 C69.2675822,9.31900364 69.1635456,8.85535684 67.8110695,8.42519446 C66.4585934,7.99503208 65.8242181,8.52104998 64.1697878,8.21011327 C62.5153574,7.89917656 61.5688722,9.07043803 60.9446525,7.13470732 C60.528506,5.84422019 60.3551117,4.58957992 60.4244694,3.37078652 L57.3033708,3.6934083 Z" id="Other-Land-Outline" fill="#FFFFFF"></path>
                    <path d="M94.6965371,71.6651364 L75.2337574,45.142896 L75.2337574,8.52059925 C75.2337574,5.49544402 72.7813845,3.04307116 69.7562293,3.04307116 L7.4906367,3.04307116 C5.03431408,3.04307116 3.04307116,5.03431408 3.04307116,7.4906367 L3.04307116,72.3782772 C3.04307116,75.4034324 5.49544402,77.8558052 8.52059925,77.8558052 L69.7562293,77.8558052 C72.7813845,77.8558052 75.2337574,75.4034324 75.2337574,72.3782772 L75.2337574,62.9054973 L94.6965371,71.6651364 Z" id="Outer-Border" stroke="#FFFFFF" stroke-width="6.08614232"></path>
                </g>
            </g>
        </g>
    </g>
</svg>