<?xml version="1.0" encoding="UTF-8"?>
<svg width="23px" height="23px" viewBox="0 0 23 23" version="1.1" xmlns="http://www.w3.org/2000/svg" xmlns:xlink="http://www.w3.org/1999/xlink">
    <!-- Generator: Sketch 49 (51002) - http://www.bohemiancoding.com/sketch -->
    <title></title>
    <desc>Created with Sketch.</desc>
    <defs></defs>
    <g id="Mobile" stroke="none" stroke-width="1" fill="none" fill-rule="evenodd">
        <g id="Mobile-Room-List" transform="translate(-327.000000, -19.000000)" fill="#FFFFFF">
            <path d="M340.660714,32.6741071 C341.839292,31.4955298 342.428571,30.0803654 342.428571,28.4285714 C342.428571,26.7767775 341.841524,25.3638452 340.667411,24.1897321 C339.493298,23.0156191 338.080365,22.4285714 336.428571,22.4285714 C334.776777,22.4285714 333.363845,23.0156191 332.189732,24.1897321 C331.015619,25.3638452 330.428571,26.7767775 330.428571,28.4285714 C330.428571,30.0803654 331.015619,31.4932977 332.189732,32.6674107 C333.363845,33.8415237 334.776777,34.4285714 336.428571,34.4285714 C338.080365,34.4285714 339.491066,33.8437558 340.660714,32.6741071 Z M349.285714,39.5714286 C349.285714,40.0357166 349.116073,40.4374983 348.776786,40.7767857 C348.437498,41.1160731 348.035717,41.2857143 347.571429,41.2857143 C347.089283,41.2857143 346.687502,41.1160731 346.366071,40.7767857 L341.772321,36.1964286 C340.174099,37.303577 338.392867,37.8571429 336.428571,37.8571429 C335.151779,37.8571429 333.930809,37.6093775 332.765625,37.1138393 C331.600441,36.6183011 330.595986,35.9486649 329.752232,35.1049107 C328.908478,34.2611565 328.238842,33.2567023 327.743304,32.0915179 C327.247765,30.9263335 327,29.7053635 327,28.4285714 C327,27.1517793 327.247765,25.9308094 327.743304,24.765625 C328.238842,23.6004406 328.908478,22.5959864 329.752232,21.7522321 C330.595986,20.9084779 331.600441,20.2388418 332.765625,19.7433036 C333.930809,19.2477654 335.151779,19 336.428571,19 C337.705364,19 338.926333,19.2477654 340.091518,19.7433036 C341.256702,20.2388418 342.261156,20.9084779 343.104911,21.7522321 C343.948665,22.5959864 344.618301,23.6004406 345.113839,24.765625 C345.609377,25.9308094 345.857143,27.1517793 345.857143,28.4285714 C345.857143,30.392867 345.303577,32.1740992 344.196429,33.7723214 L348.790179,38.3660714 C349.120537,38.6964302 349.285714,39.0982119 349.285714,39.5714286 Z" id=""></path>
        </g>
    </g>
</svg>