<?xml version="1.0" encoding="UTF-8"?>
<svg width="23px" height="23px" viewBox="0 0 23 23" version="1.1" xmlns="http://www.w3.org/2000/svg" xmlns:xlink="http://www.w3.org/1999/xlink">
    <!-- Generator: Sketch 49 (51002) - http://www.bohemiancoding.com/sketch -->
    <title></title>
    <desc>Created with Sketch.</desc>
    <defs></defs>
    <g id="Mobile" stroke="none" stroke-width="1" fill="none" fill-rule="evenodd">
        <g id="Mobile-Room-List" transform="translate(-287.000000, -19.000000)" fill="#FFFFFF">
            <path d="M310,28.9318182 L310,32.0681818 C310,32.5037901 309.847539,32.8740515 309.542614,33.1789773 C309.237688,33.483903 308.867426,33.6363636 308.431818,33.6363636 L301.636364,33.6363636 L301.636364,40.4318182 C301.636364,40.8674264 301.483903,41.2376879 301.178977,41.5426136 C300.874052,41.8475394 300.50379,42 300.068182,42 L296.931818,42 C296.49621,42 296.125948,41.8475394 295.821023,41.5426136 C295.516097,41.2376879 295.363636,40.8674264 295.363636,40.4318182 L295.363636,33.6363636 L288.568182,33.6363636 C288.132574,33.6363636 287.762312,33.483903 287.457386,33.1789773 C287.152461,32.8740515 287,32.5037901 287,32.0681818 L287,28.9318182 C287,28.4962099 287.152461,28.1259485 287.457386,27.8210227 C287.762312,27.516097 288.132574,27.3636364 288.568182,27.3636364 L295.363636,27.3636364 L295.363636,20.5681818 C295.363636,20.1325736 295.516097,19.7623121 295.821023,19.4573864 C296.125948,19.1524606 296.49621,19 296.931818,19 L300.068182,19 C300.50379,19 300.874052,19.1524606 301.178977,19.4573864 C301.483903,19.7623121 301.636364,20.1325736 301.636364,20.5681818 L301.636364,27.3636364 L308.431818,27.3636364 C308.867426,27.3636364 309.237688,27.516097 309.542614,27.8210227 C309.847539,28.1259485 310,28.4962099 310,28.9318182 Z" id=""></path>
        </g>
    </g>
</svg>