<?xml version="1.0" encoding="UTF-8"?>
<svg width="115px" height="115px" viewBox="0 0 115 115" version="1.1" xmlns="http://www.w3.org/2000/svg" xmlns:xlink="http://www.w3.org/1999/xlink">
    <g id="shield" stroke="none" stroke-width="1" fill="none" fill-rule="evenodd">
        <path d="M52.7269987,12.7747528 C56.1674383,11.7313378 59.8415102,11.7420825 63.2757882,12.8056023 L95.0439746,22.6435062 C101.506307,24.6447474 105.353656,31.2677728 103.89076,37.8728194 C100.959329,51.1083665 96.4780902,63.3884771 90.4470429,74.713151 C82.6579324,89.3389914 71.8442917,98.472295 58.0061207,102.113062 C44.7517639,99.2437032 33.9381232,90.1103997 25.5651986,74.713151 C19.1973148,63.0030382 14.4668717,50.8173341 11.3738695,38.1560388 C9.73579096,31.4505165 13.6239739,24.6339047 20.2295735,22.6305614 L52.7269987,12.7747528 Z M58.0099301,26.4242937 L58.0099301,93.3393735 C69.2244562,90.3888771 77.9878872,82.9872001 84.3002231,71.1343425 C88.8124116,62.6616742 92.2541541,53.5290899 94.6254507,43.7365897 C96.2407307,37.0661196 92.3923396,30.2891123 85.8362521,28.2588372 L64.4890201,21.6480722 C61.8511858,20.8311933 59.0505874,22.3073693 58.2337085,24.9452037 C58.085367,25.4242225 58.0099301,25.9228316 58.0099301,26.4242937 Z" id="Combined-Shape" fill="#FFFFFF"></path>
    </g>
</svg>